<svg width="106" height="40" viewBox="0 0 106 40" fill="none" xmlns="http://www.w3.org/2000/svg">
<path d="M30.9597 27.8917C31.2065 28.0373 31.2814 28.3605 31.1152 28.5939C29.1893 31.2993 26.4315 33.3907 23.2062 34.5831C19.8102 35.8387 16.076 36.0311 12.5551 35.1318C9.03426 34.2326 5.91356 32.2895 3.65406 29.5895C1.39455 26.8896 0.116083 23.576 0.00752927 20.1383C-0.101024 16.7007 0.966095 13.3212 3.05123 10.4993C5.13637 7.67742 8.12893 5.5627 11.5868 4.46758C15.0447 3.37246 18.7845 3.35504 22.2537 4.41788C25.5486 5.42736 28.4336 7.36049 30.5268 9.95313C30.7071 10.1765 30.6514 10.5043 30.4131 10.6643L26.2545 13.4537C26.0341 13.6015 25.7376 13.5506 25.5683 13.3463C24.2366 11.7401 22.4245 10.5417 20.361 9.90947C18.1416 9.22953 15.7491 9.24068 13.537 9.94127C11.3248 10.6419 9.41035 11.9947 8.0764 13.8C6.74245 15.6053 6.05977 17.7673 6.12922 19.9665C6.19866 22.1657 7.01655 24.2855 8.46205 26.0128C9.90755 27.7401 11.904 28.9832 14.1564 29.5585C16.4089 30.1337 18.7978 30.0107 20.9704 29.2074C22.9894 28.461 24.722 27.1638 25.9499 25.4869C26.107 25.2724 26.4006 25.2038 26.6296 25.3388L30.9597 27.8917Z" fill="url(#paint0_radial_657_929)"/>
<path d="M14 0.5C14 0.223858 14.2239 0 14.5 0H19.5C19.7761 0 20 0.223858 20 0.5V5H14V0.5Z" fill="#592CB8"/>
<path d="M14 35H20V39.5C20 39.7761 19.7761 40 19.5 40H14.5C14.2239 40 14 39.7761 14 39.5V35Z" fill="#592CB8"/>
<path d="M30.2598 24.7939H27.104V12.8672H30.0352V14.563C30.5368 13.7619 30.986 13.234 31.3828 12.9795C31.7871 12.7249 32.2438 12.5977 32.7529 12.5977C33.4717 12.5977 34.1642 12.7961 34.8306 13.1929L33.8535 15.9443C33.3219 15.5999 32.8278 15.4277 32.3711 15.4277C31.9294 15.4277 31.555 15.5513 31.248 15.7983C30.9411 16.0379 30.6978 16.4759 30.5181 17.1123C30.3459 17.7487 30.2598 19.0814 30.2598 21.1104V24.7939ZM34.707 12.8672H38.0649L40.9175 21.335L43.7026 12.8672H46.9707L42.7593 24.3447L42.0068 26.4224C41.7298 27.1187 41.464 27.6502 41.2095 28.0171C40.9624 28.384 40.6742 28.6797 40.3447 28.9043C40.0228 29.1364 39.6222 29.3161 39.1431 29.4434C38.6714 29.5706 38.1361 29.6343 37.5371 29.6343C36.9307 29.6343 36.3354 29.5706 35.7515 29.4434L35.4707 26.9727C35.9648 27.07 36.4103 27.1187 36.8071 27.1187C37.5409 27.1187 38.0837 26.9015 38.4355 26.4673C38.7874 26.0405 39.057 25.494 39.2441 24.8276L34.707 12.8672ZM48.9136 12.8672H51.856V14.6191C52.2378 14.0202 52.7544 13.5335 53.4058 13.1592C54.0571 12.7848 54.7796 12.5977 55.5732 12.5977C56.9583 12.5977 58.1338 13.1405 59.0996 14.2261C60.0654 15.3117 60.5483 16.8241 60.5483 18.7632C60.5483 20.7547 60.0617 22.3045 59.0884 23.4126C58.1151 24.5132 56.9359 25.0635 55.5508 25.0635C54.8919 25.0635 54.293 24.9325 53.7539 24.6704C53.2223 24.4084 52.6608 23.9591 52.0693 23.3228V29.3311H48.9136V12.8672ZM52.0356 18.6284C52.0356 19.9686 52.3014 20.9606 52.833 21.6045C53.3646 22.2409 54.0122 22.5591 54.7759 22.5591C55.5096 22.5591 56.1198 22.2671 56.6064 21.6831C57.0931 21.0916 57.3364 20.1258 57.3364 18.7856C57.3364 17.5353 57.0856 16.6069 56.584 16.0005C56.0824 15.394 55.4609 15.0908 54.7197 15.0908C53.9486 15.0908 53.3084 15.3903 52.7993 15.9893C52.2902 16.5807 52.0356 17.4604 52.0356 18.6284ZM68.5332 12.8672V15.3828H66.377V20.1895C66.377 21.1628 66.3957 21.7318 66.4331 21.8965C66.478 22.0537 66.5716 22.1847 66.7139 22.2896C66.8636 22.3944 67.0433 22.4468 67.2529 22.4468C67.5449 22.4468 67.9679 22.3457 68.522 22.1436L68.7915 24.5918C68.0578 24.9062 67.2267 25.0635 66.2983 25.0635C65.7293 25.0635 65.2165 24.9699 64.7598 24.7827C64.3031 24.5881 63.9661 24.341 63.749 24.0415C63.5394 23.7345 63.3934 23.3228 63.311 22.8062C63.2437 22.4393 63.21 21.6981 63.21 20.5825V15.3828H61.7612V12.8672H63.21V10.4976L66.377 8.65576V12.8672H68.5332ZM69.9932 18.6621C69.9932 17.6139 70.2515 16.5994 70.7681 15.6187C71.2847 14.6379 72.0146 13.8892 72.958 13.3726C73.9089 12.856 74.9683 12.5977 76.1362 12.5977C77.9406 12.5977 79.4193 13.1854 80.5723 14.3608C81.7253 15.5288 82.3018 17.0075 82.3018 18.7969C82.3018 20.6012 81.7178 22.0986 80.5498 23.2891C79.3893 24.472 77.9256 25.0635 76.1587 25.0635C75.0656 25.0635 74.0212 24.8164 73.0254 24.3223C72.0371 23.8281 71.2847 23.1056 70.7681 22.1548C70.2515 21.1965 69.9932 20.0322 69.9932 18.6621ZM73.2275 18.8306C73.2275 20.0135 73.5083 20.9194 74.0698 21.5483C74.6313 22.1772 75.3239 22.4917 76.1475 22.4917C76.971 22.4917 77.6598 22.1772 78.2139 21.5483C78.7754 20.9194 79.0562 20.006 79.0562 18.8081C79.0562 17.6401 78.7754 16.7417 78.2139 16.1128C77.6598 15.4839 76.971 15.1694 76.1475 15.1694C75.3239 15.1694 74.6313 15.4839 74.0698 16.1128C73.5083 16.7417 73.2275 17.6476 73.2275 18.8306ZM87.8047 24.7939H84.6489V12.8672H87.5801V14.563C88.0817 13.7619 88.5309 13.234 88.9277 12.9795C89.332 12.7249 89.7887 12.5977 90.2979 12.5977C91.0166 12.5977 91.7091 12.7961 92.3755 13.1929L91.3984 15.9443C90.8669 15.5999 90.3727 15.4277 89.916 15.4277C89.4743 15.4277 89.0999 15.5513 88.793 15.7983C88.486 16.0379 88.2427 16.4759 88.063 17.1123C87.8908 17.7487 87.8047 19.0814 87.8047 21.1104V24.7939ZM92.252 12.8672H95.6099L98.4624 21.335L101.248 12.8672H104.516L100.304 24.3447L99.5518 26.4224C99.2747 27.1187 99.009 27.6502 98.7544 28.0171C98.5073 28.384 98.2191 28.6797 97.8896 28.9043C97.5677 29.1364 97.1672 29.3161 96.688 29.4434C96.2163 29.5706 95.681 29.6343 95.082 29.6343C94.4756 29.6343 93.8804 29.5706 93.2964 29.4434L93.0156 26.9727C93.5098 27.07 93.9552 27.1187 94.3521 27.1187C95.0858 27.1187 95.6286 26.9015 95.9805 26.4673C96.3324 26.0405 96.6019 25.494 96.7891 24.8276L92.252 12.8672Z" fill="white"/>
<defs>
<radialGradient id="paint0_radial_657_929" cx="0" cy="0" r="1" gradientUnits="userSpaceOnUse" gradientTransform="translate(17 19.6614) rotate(90) scale(16.028 17)">
<stop stop-color="#2C66B8"/>
<stop offset="0.615" stop-color="#4842B8"/>
<stop offset="1" stop-color="#592CB8"/>
</radialGradient>
</defs>
</svg>
