<svg width="256" height="72" viewBox="0 0 256 72" fill="none" xmlns="http://www.w3.org/2000/svg">
<path d="M62.9597 43.8917C63.2065 44.0373 63.2814 44.3605 63.1152 44.5939C61.1893 47.2993 58.4315 49.3907 55.2062 50.5831C51.8102 51.8387 48.076 52.0311 44.5551 51.1318C41.0343 50.2326 37.9136 48.2895 35.6541 45.5895C33.3946 42.8896 32.1161 39.576 32.0075 36.1383C31.899 32.7007 32.9661 29.3212 35.0512 26.4993C37.1364 23.6774 40.1289 21.5627 43.5868 20.4676C47.0447 19.3725 50.7845 19.355 54.2537 20.4179C57.5486 21.4274 60.4336 23.3605 62.5268 25.9531C62.7071 26.1765 62.6514 26.5043 62.4131 26.6643L58.2545 29.4537C58.0341 29.6015 57.7376 29.5506 57.5683 29.3463C56.2366 27.7401 54.4245 26.5417 52.361 25.9095C50.1416 25.2295 47.7491 25.2407 45.537 25.9413C43.3248 26.6419 41.4103 27.9947 40.0764 29.8C38.7424 31.6053 38.0598 33.7673 38.1292 35.9665C38.1987 38.1657 39.0166 40.2855 40.462 42.0128C41.9075 43.7401 43.904 44.9832 46.1564 45.5585C48.4089 46.1337 50.7978 46.0107 52.9704 45.2074C54.9894 44.461 56.722 43.1638 57.9499 41.4869C58.107 41.2724 58.4006 41.2038 58.6296 41.3388L62.9597 43.8917Z" fill="#FF971D"/>
<path d="M46.209 16.5C46.209 16.2239 46.4328 16 46.709 16H51.7985C52.0747 16 52.2985 16.2239 52.2985 16.5V23H46.209V16.5Z" fill="#FF971D"/>
<path d="M46.209 49H52.2985V55.5C52.2985 55.7761 52.0747 56 51.7985 56H46.709C46.4328 56 46.209 55.7761 46.209 55.5V49Z" fill="#FF971D"/>
<path d="M62.2598 40.7939H59.104V28.8672H62.0352V30.563C62.5368 29.7619 62.986 29.234 63.3828 28.9795C63.7871 28.7249 64.2438 28.5977 64.7529 28.5977C65.4717 28.5977 66.1642 28.7961 66.8306 29.1929L65.8535 31.9443C65.3219 31.5999 64.8278 31.4277 64.3711 31.4277C63.9294 31.4277 63.555 31.5513 63.248 31.7983C62.9411 32.0379 62.6978 32.4759 62.5181 33.1123C62.3459 33.7487 62.2598 35.0814 62.2598 37.1104V40.7939ZM66.707 28.8672H70.0649L72.9175 37.335L75.7026 28.8672H78.9707L74.7593 40.3447L74.0068 42.4224C73.7298 43.1187 73.464 43.6502 73.2095 44.0171C72.9624 44.384 72.6742 44.6797 72.3447 44.9043C72.0228 45.1364 71.6222 45.3161 71.1431 45.4434C70.6714 45.5706 70.1361 45.6343 69.5371 45.6343C68.9307 45.6343 68.3354 45.5706 67.7515 45.4434L67.4707 42.9727C67.9648 43.07 68.4103 43.1187 68.8071 43.1187C69.5409 43.1187 70.0837 42.9015 70.4355 42.4673C70.7874 42.0405 71.057 41.494 71.2441 40.8276L66.707 28.8672ZM80.9136 28.8672H83.856V30.6191C84.2378 30.0202 84.7544 29.5335 85.4058 29.1592C86.0571 28.7848 86.7796 28.5977 87.5732 28.5977C88.9583 28.5977 90.1338 29.1405 91.0996 30.2261C92.0654 31.3117 92.5483 32.8241 92.5483 34.7632C92.5483 36.7547 92.0617 38.3045 91.0884 39.4126C90.1151 40.5132 88.9359 41.0635 87.5508 41.0635C86.8919 41.0635 86.293 40.9325 85.7539 40.6704C85.2223 40.4084 84.6608 39.9591 84.0693 39.3228V45.3311H80.9136V28.8672ZM84.0356 34.6284C84.0356 35.9686 84.3014 36.9606 84.833 37.6045C85.3646 38.2409 86.0122 38.5591 86.7759 38.5591C87.5096 38.5591 88.1198 38.2671 88.6064 37.6831C89.0931 37.0916 89.3364 36.1258 89.3364 34.7856C89.3364 33.5353 89.0856 32.6069 88.584 32.0005C88.0824 31.394 87.4609 31.0908 86.7197 31.0908C85.9486 31.0908 85.3084 31.3903 84.7993 31.9893C84.2902 32.5807 84.0356 33.4604 84.0356 34.6284ZM100.533 28.8672V31.3828H98.377V36.1895C98.377 37.1628 98.3957 37.7318 98.4331 37.8965C98.478 38.0537 98.5716 38.1847 98.7139 38.2896C98.8636 38.3944 99.0433 38.4468 99.2529 38.4468C99.5449 38.4468 99.9679 38.3457 100.522 38.1436L100.792 40.5918C100.058 40.9062 99.2267 41.0635 98.2983 41.0635C97.7293 41.0635 97.2165 40.9699 96.7598 40.7827C96.3031 40.5881 95.9661 40.341 95.749 40.0415C95.5394 39.7345 95.3934 39.3228 95.311 38.8062C95.2437 38.4393 95.21 37.6981 95.21 36.5825V31.3828H93.7612V28.8672H95.21V26.4976L98.377 24.6558V28.8672H100.533ZM101.993 34.6621C101.993 33.6139 102.251 32.5994 102.768 31.6187C103.285 30.6379 104.015 29.8892 104.958 29.3726C105.909 28.856 106.968 28.5977 108.136 28.5977C109.941 28.5977 111.419 29.1854 112.572 30.3608C113.725 31.5288 114.302 33.0075 114.302 34.7969C114.302 36.6012 113.718 38.0986 112.55 39.2891C111.389 40.472 109.926 41.0635 108.159 41.0635C107.066 41.0635 106.021 40.8164 105.025 40.3223C104.037 39.8281 103.285 39.1056 102.768 38.1548C102.251 37.1965 101.993 36.0322 101.993 34.6621ZM105.228 34.8306C105.228 36.0135 105.508 36.9194 106.07 37.5483C106.631 38.1772 107.324 38.4917 108.147 38.4917C108.971 38.4917 109.66 38.1772 110.214 37.5483C110.775 36.9194 111.056 36.006 111.056 34.8081C111.056 33.6401 110.775 32.7417 110.214 32.1128C109.66 31.4839 108.971 31.1694 108.147 31.1694C107.324 31.1694 106.631 31.4839 106.07 32.1128C105.508 32.7417 105.228 33.6476 105.228 34.8306ZM119.805 40.7939H116.649V28.8672H119.58V30.563C120.082 29.7619 120.531 29.234 120.928 28.9795C121.332 28.7249 121.789 28.5977 122.298 28.5977C123.017 28.5977 123.709 28.7961 124.375 29.1929L123.398 31.9443C122.867 31.5999 122.373 31.4277 121.916 31.4277C121.474 31.4277 121.1 31.5513 120.793 31.7983C120.486 32.0379 120.243 32.4759 120.063 33.1123C119.891 33.7487 119.805 35.0814 119.805 37.1104V40.7939ZM124.252 28.8672H127.61L130.462 37.335L133.248 28.8672H136.516L132.304 40.3447L131.552 42.4224C131.275 43.1187 131.009 43.6502 130.754 44.0171C130.507 44.384 130.219 44.6797 129.89 44.9043C129.568 45.1364 129.167 45.3161 128.688 45.4434C128.216 45.5706 127.681 45.6343 127.082 45.6343C126.476 45.6343 125.88 45.5706 125.296 45.4434L125.016 42.9727C125.51 43.07 125.955 43.1187 126.352 43.1187C127.086 43.1187 127.629 42.9015 127.98 42.4673C128.332 42.0405 128.602 41.494 128.789 40.8276L124.252 28.8672Z" fill="white"/>
</svg>
